# xmcd
#
# Track frame offsets: 
#        150
#        11957
#        28183
#        45047
#        57587
#        73038
#        92395
#        118723
#        136425
#        153067
#        162014
#        180023
#        198564
#        220993
#        240207
#        259642
#        265636
#        283425
#        284403
#
# Disc length: 4025 seconds
#
# Revision: 0
# Processed by: cddbd v1.5.2PL0 Copyright (c) Steve Scherf et al.
# Submitted via: ExactAudioCopyFreeDBPlugin 1.0
#
DISCID=060fb713
DTITLE=Mr. Dead - MV3: Dynamic Tension
DYEAR=2006
DGENRE=Hip Hop
TTITLE0=Not 2 Be Fucked Wit!
TTITLE1=Rhyme And Punishment
TTITLE2=Return Of The Pimp Daddy Shrimp
TTITLE3=Tyme Bandits
TTITLE4=More Good Shit
TTITLE5=Dynamic Tension
TTITLE6=Burial Ground
TTITLE7=Hostyle Takeover
TTITLE8=Love One's Self
TTITLE9=What's 4 Lunch
TTITLE10=Shallow Grave
TTITLE11=You Don't Wanna!
TTITLE12=Sweet Lady
TTITLE13=Lessons In Life
TTITLE14=Dope Fiend
TTITLE15=Huggin Tha Block
TTITLE16=Standing Upright
TTITLE17=Deadworld Productions
TTITLE18=That Sounds Personal
EXTD=
EXTT0=
EXTT1=
EXTT2=
EXTT3=
EXTT4=
EXTT5=
EXTT6=
EXTT7=
EXTT8=
EXTT9=
EXTT10=
EXTT11=
EXTT12=
EXTT13=
EXTT14=
EXTT15=
EXTT16=
EXTT17=
EXTT18=
PLAYORDER=
